<svg width="178" height="223" viewBox="0 0 178 223" fill="none" xmlns="http://www.w3.org/2000/svg">
<path d="M141.673 118.048C130.151 141.616 70.6154 212.43 45.8069 200.302C20.9984 188.174 40.3116 97.6971 51.8331 74.1291C63.3546 50.561 107.958 10.2923 132.766 22.4202C157.575 34.548 153.194 94.4799 141.673 118.048Z" fill="black"/>
<path d="M58.2537 180.4C59.4714 177.684 61.2043 179.062 63.0659 181.465C65.5676 180.691 66.0827 184.786 65.6339 185.35C64.7363 186.478 61.2081 187.357 59.1553 187.566C58.4488 186.083 57.2796 182.573 58.2537 180.4Z" fill="#FF1640"/>
<path d="M44.2537 174.4C45.4714 171.684 47.2043 173.062 49.0659 175.465C51.5676 174.691 52.0827 178.786 51.6339 179.35C50.7363 180.478 47.2081 181.357 45.1553 181.566C44.4488 180.083 43.2796 176.573 44.2537 174.4Z" fill="#FF1640"/>
<path d="M121 172.974C117 164.974 104.667 157.974 99 155.474C100.667 151.974 106.3 146.574 115.5 152.974C127 160.974 126 182.974 121 172.974Z" fill="black" stroke="black"/>
<path d="M137 159.974C133 151.974 120.667 144.974 115 142.474C116.667 138.974 122.3 133.574 131.5 139.974C143 147.974 142 169.974 137 159.974Z" fill="black" stroke="black"/>
<path d="M150 142.974C146 134.974 133.667 127.974 128 125.474C129.667 121.974 135.3 116.574 144.5 122.974C156 130.974 155 152.974 150 142.974Z" fill="black" stroke="black"/>
<path d="M25.4062 126.075C33.7534 122.862 47.5822 126.005 53.4531 127.978C54.5813 124.269 54.0601 116.483 42.9503 115.009C29.0631 113.167 14.9722 130.091 25.4062 126.075Z" fill="black" stroke="black"/>
<path d="M22.3505 105.687C30.6977 102.474 44.5264 105.617 50.3974 107.59C51.5255 103.881 51.0044 96.0953 39.8946 94.6213C26.0074 92.7788 11.9164 109.704 22.3505 105.687Z" fill="black" stroke="black"/>
<path d="M24.2071 84.367C32.5544 81.1539 46.3831 84.2969 52.254 86.2699C53.3822 82.5612 52.861 74.7751 41.7512 73.3011C27.864 71.4586 13.7731 88.3833 24.2071 84.367Z" fill="black" stroke="black"/>
</svg>
