<svg width="14" height="71" viewBox="0 0 14 71" fill="none" xmlns="http://www.w3.org/2000/svg">
<rect width="12" height="21" rx="1" fill="black"/>
<path d="M1.5 63L2 21H10.5L14 63L9 71L1.5 63Z" fill="#C7C7C7"/>
<path d="M3.5945 34.3455C2.31937 32.25 4.01955 33.5073 3.16947 32.6691C2.62418 32.1314 3.49986 31.7375 4.30658 31.5304C4.30999 31.5296 4.31339 31.5287 4.3168 31.5278C4.51052 31.4698 4.96066 30.8733 5.29466 28.8972C5.71969 26.3827 6.14475 29.7354 9.54508 31.8309C12.9454 33.9264 9.54508 32.6691 7.84491 34.3455C6.14475 36.0218 7.84491 35.1836 6.14475 37.2791C4.44458 39.3746 4.86962 36.4409 3.5945 34.3455Z" fill="#671E1E"/>
<path d="M10.5 48C10.5 46.8 11.8333 47.1667 12.5 47.5C12.6667 50.8333 13 57.7 13 58.5C13 59.5 11.5 58.5 11 57C10.5 55.5 9.49998 55.5 8.49998 53.5C7.49998 51.5 7.49998 51 8.99998 50C10.5 49 10.5 49.5 10.5 48Z" fill="#671E1E"/>
<path d="M7 64.5C7 63.9096 7.5447 64.0091 8.03109 64.2358C8.11242 63.8567 8.3704 63.3148 9 63C10 62.5 9.5 62 10.5 60.5C11.5 59 11.5 62 11.5 63.5C11.5 64.7 12.1667 65.3333 12.5 65.5L9 71L5.5 67C5.5 66.6667 5.6 66 6 66C6.5 66 7 65.5 7 64.5Z" fill="#671E1E"/>
</svg>
