<svg width="158" height="117" viewBox="0 0 158 117" fill="none" xmlns="http://www.w3.org/2000/svg">
<path d="M140.5 62.5C140.5 84.5914 126.988 102.5 87.5 102.5C48.0116 102.5 0 84.5914 0 62.5C0 40.4086 48.0116 22.5 87.5 22.5C126.988 22.5 140.5 40.4086 140.5 62.5Z" fill="#A2ADD0"/>
<path d="M23 87.5L31.5 54L35.5 92.5L23 87.5Z" fill="#A81D1D"/>
<path d="M26 50C28 52.8333 33.5 56.8 39.5 50" stroke="black" stroke-width="3"/>
<path d="M98.2961 37.1514C95.3844 39.0355 91.1991 44.3711 97.7515 50.6405" stroke="#2A3F83"/>
<path d="M98.2961 50.1514C95.3844 52.0355 91.1991 57.3711 97.7515 63.6405" stroke="#2A3F83"/>
<path d="M97.2961 64.1514C94.3844 66.0355 90.1991 71.3711 96.7515 77.6405" stroke="#2A3F83"/>
<path d="M97.2961 77.1514C94.3844 79.0355 90.1991 84.3711 96.7515 90.6405" stroke="#2A3F83"/>
<path d="M112.296 37.1514C109.384 39.0355 105.199 44.3711 111.752 50.6405" stroke="#2A3F83"/>
<path d="M112.296 51.1514C109.384 53.0355 105.199 58.3711 111.752 64.6405" stroke="#2A3F83"/>
<path d="M112.296 65.1514C109.384 67.0355 105.199 72.3711 111.752 78.6405" stroke="#2A3F83"/>
<path d="M113.296 78.1514C110.384 80.0355 106.199 85.3711 112.752 91.6405" stroke="#2A3F83"/>
<path d="M158 0L136 50.1429V72.2057L158 117V0Z" fill="#A2ADD0"/>
<path d="M54.5 98.5L86.5 22.5H95L64.5 100.5L54.5 98.5Z" fill="white"/>
<path d="M92.8741 107.599L76.4219 26.7951L83.4402 22L102.259 103.609L92.8741 107.599Z" fill="white"/>
<path d="M81.5 22.5L75 23.5L77 102.5H86L81.5 22.5Z" fill="white"/>
</svg>
