<svg width="203" height="306" viewBox="0 0 203 306" fill="none" xmlns="http://www.w3.org/2000/svg">
<path d="M166.673 118.048C155.151 141.616 95.6154 212.43 70.8069 200.302C45.9984 188.174 65.3116 97.6971 76.8331 74.1291C88.3546 50.561 132.958 10.2923 157.766 22.4202C182.575 34.548 178.194 94.4799 166.673 118.048Z" fill="black"/>
<path d="M54.8027 183.705C67.4816 169.304 78.1773 173.138 81.9402 176.855C81.9106 178.718 79.827 182.259 71.7303 181.519C61.6094 180.595 30.3561 233.712 12.2721 263.495C-2.19504 287.321 -0.308695 282.021 2.44288 276.392C14.6133 251.497 42.1238 198.106 54.8027 183.705Z" fill="black" stroke="black"/>
<path d="M93.7348 202.737C97.3113 183.886 87.7163 177.801 82.4717 177.115C81.0197 178.282 79.5051 182.102 85.0619 188.037C92.008 195.456 69.2882 252.744 56.8932 285.309C46.9772 311.36 50.0014 306.615 52.7529 300.987C64.9233 276.091 90.1583 221.588 93.7348 202.737Z" fill="black" stroke="black"/>
<path d="M83.2537 180.4C84.4714 177.684 86.2043 179.062 88.0659 181.465C90.5676 180.691 91.0827 184.786 90.6339 185.35C89.7363 186.478 86.2081 187.357 84.1553 187.566C83.4488 186.083 82.2796 182.573 83.2537 180.4Z" fill="#FF1640"/>
<path d="M69.2537 174.4C70.4714 171.684 72.2043 173.062 74.0659 175.465C76.5676 174.691 77.0827 178.786 76.6339 179.35C75.7363 180.478 72.2081 181.357 70.1553 181.566C69.4488 180.083 68.2796 176.573 69.2537 174.4Z" fill="#FF1640"/>
<path d="M146 172.974C142 164.974 129.667 157.974 124 155.474C125.667 151.974 131.3 146.574 140.5 152.974C152 160.974 151 182.974 146 172.974Z" fill="black" stroke="black"/>
<path d="M162 159.974C158 151.974 145.667 144.974 140 142.474C141.667 138.974 147.3 133.574 156.5 139.974C168 147.974 167 169.974 162 159.974Z" fill="black" stroke="black"/>
<path d="M175 142.974C171 134.974 158.667 127.974 153 125.474C154.667 121.974 160.3 116.574 169.5 122.974C181 130.974 180 152.974 175 142.974Z" fill="black" stroke="black"/>
<path d="M50.4062 126.075C58.7534 122.862 72.5822 126.005 78.4531 127.978C79.5813 124.269 79.0601 116.483 67.9503 115.009C54.0631 113.167 39.9722 130.091 50.4062 126.075Z" fill="black" stroke="black"/>
<path d="M47.3505 105.687C55.6977 102.474 69.5264 105.617 75.3974 107.59C76.5255 103.881 76.0044 96.0953 64.8946 94.6213C51.0074 92.7788 36.9164 109.704 47.3505 105.687Z" fill="black" stroke="black"/>
<path d="M49.2071 84.367C57.5544 81.1539 71.3831 84.2969 77.254 86.2699C78.3822 82.5612 77.861 74.7751 66.7512 73.3011C52.864 71.4586 38.7731 88.3833 49.2071 84.367Z" fill="black" stroke="black"/>
</svg>
